<?xml version="1.0" encoding="UTF-8"?><svg id="Calque_1" xmlns="http://www.w3.org/2000/svg" viewBox="0 0 386.54 150.91"><defs><style>.cls-1{letter-spacing:.03em;}.cls-2{fill:#fff;}.cls-3{letter-spacing:.02em;}.cls-4{letter-spacing:.03em;}.cls-5{letter-spacing:.03em;}.cls-6{font-family:Animated, Animated;font-size:32.71px;letter-spacing:.05em;}.cls-6,.cls-7{fill:#a8a8a8;}.cls-7{font-family:GravesendSans-Medium, 'Gravesend Sans';font-size:93.92px;font-weight:500;}</style></defs><text class="cls-6" transform="translate(7.3 139.92) scale(.89 1)"><tspan x="0" y="0">Clean, Create, Recycle, Repeat</tspan></text><text class="cls-7" transform="translate(0 108.03)"><tspan class="cls-4" x="0" y="0">K</tspan><tspan class="cls-5" x="64.05" y="0">R</tspan><tspan class="cls-3" x="131.3" y="0">YS</tspan><tspan class="cls-1" x="256.68" y="0">T</tspan></text><path class="cls-2" d="m149.95,24.86h0c-.56-.06-3.43-.5-7.18-3.84-6.71-5.96-18.46-7.91-27.93-.07-3.49,2.89-7.19,4.37-10.61,4.45-3.45-.08-6.97-1.56-10.47-4.45-4.29-3.56-9.05-5.1-13.59-5.16-4.54.06-9.28,1.6-13.59,5.16-3.5,2.89-7.02,4.37-10.47,4.45-3.42-.08-7.11-1.56-10.61-4.45-9.47-7.84-21.22-5.89-27.93.07-3.75,3.34-6.62,3.78-7.18,3.84h0c-1.71,0-3.1,1.39-3.1,3.1s1.39,3.11,3.1,3.11c.02,0,.04-.01.05-.01.69,0,5.49-.27,11.26-5.41,3.29-2.93,11.68-6.68,19.84.08,4.66,3.85,9.76,5.81,14.57,5.89,4.83-.09,9.77-2.04,14.43-5.89,3.31-2.74,6.63-3.75,9.63-3.79,3,.04,6.32,1.05,9.63,3.79,4.66,3.85,9.6,5.81,14.43,5.89,4.81-.09,9.92-2.04,14.57-5.89,8.16-6.76,16.55-3.01,19.84-.08,5.77,5.14,10.58,5.4,11.26,5.41.02,0,.03.01.05.01,1.71,0,3.1-1.39,3.1-3.11s-1.4-3.1-3.1-3.1Z"/><path class="cls-2" d="m149.95,9.08h0c-.56-.06-3.43-.5-7.18-3.84-6.71-5.96-18.46-7.91-27.93-.07-3.49,2.89-7.19,4.37-10.61,4.45-3.45-.08-6.97-1.56-10.47-4.45C89.47,1.61,84.71.07,80.18.01c-4.54.06-9.28,1.6-13.59,5.16-3.5,2.89-7.02,4.37-10.47,4.45-3.42-.08-7.11-1.56-10.61-4.45-9.47-7.84-21.22-5.89-27.93.07-3.75,3.34-6.62,3.78-7.18,3.84h0c-1.71,0-3.1,1.39-3.1,3.1s1.39,3.11,3.1,3.11c.02,0,.04-.01.05-.01.69,0,5.49-.27,11.26-5.41,3.29-2.93,11.68-6.68,19.84.08,4.66,3.85,9.76,5.81,14.57,5.89,4.83-.09,9.77-2.04,14.43-5.89,3.31-2.74,6.63-3.75,9.63-3.79,3,.04,6.32,1.05,9.63,3.79,4.66,3.85,9.6,5.81,14.43,5.89,4.81-.09,9.92-2.04,14.57-5.89,8.16-6.76,16.55-3.01,19.84-.08,5.77,5.14,10.58,5.4,11.26,5.41.02,0,.03.01.05.01,1.71,0,3.1-1.39,3.1-3.11s-1.4-3.1-3.1-3.1Z"/><path class="cls-2" d="m348.03,102.52c-14.34-1.79-24.65-13.39-24.65-27.56s10.31-25.9,24.65-27.69v-5.49c-17.76,1.82-30.4,17.53-30.4,34.76s12.65,29.67,30.4,31.5v-5.51Z"/><path class="cls-2" d="m354.79,41.69v5.46c15,1.34,25.82,13.17,25.82,27.81s-10.81,26.34-25.82,27.68v5.48c18.44-1.35,31.6-15.72,31.6-33.17s-13.16-31.92-31.6-33.26Z"/></svg>